# xmcd
#
# Track frame offsets: 
#        150
#        19743
#        47118
#
# Disc length: 888 seconds
#
# Revision: 0
# Processed by: cddbd v1.5.2PL0 Copyright (c) Steve Scherf et al.
# Submitted via: ExactAudioCopy v0.99pb5
#
DISCID=1d037603
DTITLE=F.O.H - SEXY WORLD
DYEAR=2001
DGENRE=R&B
TTITLE0=SEXY WORLD
TTITLE1=SEXY WORLD -MINE Club Mix
TTITLE2=SEXY WORLD (Instrumental)
EXTD=
EXTT0=
EXTT1=
EXTT2=
PLAYORDER=
